<?xml version="1.0" standalone="no"?>
<!DOCTYPE svg PUBLIC "-//W3C//DTD SVG 20010904//EN"
 "http://www.w3.org/TR/2001/REC-SVG-20010904/DTD/svg10.dtd">
<svg version="1.0" xmlns="http://www.w3.org/2000/svg"
 width="300.000000pt" height="300.000000pt" viewBox="0 0 300.000000 300.000000"
 preserveAspectRatio="xMidYMid meet">
<metadata>
Created by potrace 1.11, written by Peter Selinger 2001-2013
</metadata>
<g transform="translate(0.000000,300.000000) scale(0.100000,-0.100000)"
fill="#000000" stroke="none">
<path d="M2308 2744 c-2 -1 -20 -5 -40 -8 -103 -16 -167 -35 -263 -77 -16 -7
-33 -13 -37 -13 -4 -1 -17 -9 -28 -19 -12 -10 -25 -15 -30 -12 -6 4 -10 2 -10
-3 0 -5 -13 -16 -28 -23 -29 -14 -98 -69 -161 -126 -19 -18 -39 -33 -43 -33
-4 0 -8 -5 -8 -10 0 -6 -10 -21 -22 -34 -39 -39 -68 -76 -61 -76 3 0 -4 -9
-17 -20 -13 -11 -20 -20 -16 -20 4 0 -6 -17 -23 -39 -17 -21 -28 -41 -24 -45
3 -3 0 -6 -7 -6 -7 0 -11 -3 -8 -6 3 -3 -9 -35 -28 -71 -18 -36 -31 -70 -28
-74 3 -5 1 -9 -4 -9 -6 0 -45 -128 -57 -190 -17 -83 -28 -330 -15 -330 3 0 6
-8 6 -17 1 -19 12 -81 18 -98 12 -33 17 -51 16 -59 -1 -5 2 -12 7 -15 4 -3 19
-26 32 -50 28 -52 27 -51 83 -112 73 -80 156 -127 300 -171 26 -8 45 -11 41
-6 -3 6 2 6 13 0 11 -5 36 -9 57 -8 20 0 37 -1 37 -4 0 -8 64 -5 78 4 7 4 12
2 12 -4 0 -6 4 -9 9 -6 4 3 39 8 77 10 38 3 69 6 69 7 0 1 11 3 25 4 28 4 65
12 65 16 0 1 11 3 25 4 14 1 38 7 53 14 16 6 34 11 42 11 8 0 17 5 20 10 4 6
12 10 18 9 30 -5 67 27 91 78 15 29 26 57 26 62 0 5 7 22 15 37 8 16 15 36 15
45 0 9 7 33 15 53 8 20 13 36 11 36 -2 0 -18 -13 -36 -29 -43 -38 -48 -42
-100 -78 -61 -41 -166 -93 -174 -86 -3 4 -6 2 -6 -4 0 -10 -25 -18 -95 -30
-78 -14 -234 -1 -247 21 -4 6 -8 8 -8 3 0 -13 -80 33 -122 71 -46 41 -114 140
-110 160 2 6 -2 12 -8 12 -5 0 -10 8 -10 18 0 10 -3 22 -7 25 -8 8 -14 48 -16
99 -1 21 -5 38 -8 38 -13 0 3 215 21 295 6 28 13 59 16 69 22 108 155 386 185
386 5 0 9 5 9 11 0 7 18 31 40 55 22 24 40 42 40 39 0 -2 16 12 37 31 59 56
164 109 263 132 32 7 175 7 220 -1 37 -6 113 -31 133 -44 7 -4 15 -8 19 -8 10
0 45 -25 82 -57 17 -16 34 -28 38 -28 3 0 9 -9 13 -19 8 -25 31 -17 31 9 0 11
-4 20 -7 20 -4 0 -4 14 1 30 5 19 5 28 -1 25 -11 -7 -12 5 0 23 4 7 5 33 1 57
-4 27 -3 49 4 56 8 9 8 10 -1 5 -6 -3 -13 -1 -15 4 -2 6 -10 12 -18 14 -8 2
-28 9 -45 15 -16 7 -37 14 -45 16 -8 3 -38 10 -65 18 -28 8 -58 13 -68 11 -9
-1 -17 1 -17 5 0 4 -9 7 -20 8 -13 1 -18 -2 -13 -10 5 -8 2 -8 -9 1 -10 8 -46
11 -107 10 -50 -1 -92 -2 -93 -4z"/>
<path d="M184 2676 c1 -7 11 -25 23 -42 25 -35 35 -72 34 -126 -1 -21 -1 -45
-1 -53 0 -8 0 -22 0 -30 0 -8 0 -22 0 -30 0 -8 0 -22 0 -30 0 -8 0 -22 0 -30
0 -8 0 -22 0 -30 0 -27 0 -45 1 -67 1 -13 1 -34 0 -48 -1 -14 -1 -33 -1 -42 0
-10 0 -26 0 -35 0 -10 0 -43 0 -73 0 -30 0 -61 0 -67 0 -7 0 -20 0 -28 0 -8 0
-23 0 -32 1 -54 1 -81 -3 -110 -2 -18 0 -33 3 -33 3 0 5 -19 3 -42 -4 -48 -4
-51 0 -93 2 -16 -1 -36 -6 -42 -5 -8 -6 -13 -1 -13 5 0 8 -17 6 -37 -1 -21 -3
-44 -2 -50 0 -7 0 -20 0 -28 0 -8 0 -22 0 -30 0 -8 0 -22 0 -30 0 -8 0 -22 0
-30 0 -8 0 -22 0 -30 0 -8 0 -21 -1 -27 0 -7 2 -22 4 -33 2 -11 1 -32 -3 -46
-4 -15 -4 -32 0 -40 5 -7 5 -20 0 -29 -5 -9 -5 -22 0 -30 5 -8 6 -19 2 -25 -3
-5 -8 -19 -10 -30 -1 -11 -16 -36 -32 -56 l-29 -37 187 0 c103 0 195 2 205 5
16 4 15 7 -7 24 -47 37 -52 77 -50 434 1 182 2 337 3 345 1 11 13 15 44 14 23
0 50 4 60 8 10 5 17 5 17 -2 0 -5 5 -10 11 -10 6 0 17 -7 25 -15 8 -8 21 -18
27 -22 17 -11 91 -103 83 -103 -4 0 2 -10 14 -22 11 -12 20 -28 20 -35 0 -7 5
-13 10 -13 6 0 10 -6 10 -12 0 -7 16 -39 35 -71 19 -32 35 -65 35 -73 0 -7 5
-14 11 -14 5 0 8 -4 5 -9 -4 -5 -3 -11 2 -13 4 -1 25 -37 46 -78 194 -378 271
-525 287 -546 5 -6 6 -14 2 -17 -3 -4 -1 -7 5 -7 7 0 12 -6 12 -14 0 -7 7 -19
15 -26 8 -7 13 -16 10 -20 -3 -5 0 -12 6 -16 6 -3 16 -18 23 -33 6 -14 33 -59
59 -99 26 -40 47 -74 47 -77 0 -3 8 -13 18 -23 9 -10 26 -29 38 -43 35 -41
115 -109 129 -109 7 0 15 -5 17 -11 2 -5 10 -11 18 -13 8 -2 22 -6 31 -10 9
-4 20 -6 25 -5 5 1 17 -1 26 -5 18 -8 123 -3 165 7 11 3 35 13 52 21 17 9 31
14 31 11 0 -4 6 0 14 7 8 8 27 26 44 39 32 27 57 67 48 76 -3 3 -12 1 -19 -5
-8 -7 -17 -9 -20 -5 -4 3 -7 1 -7 -6 0 -7 -4 -10 -9 -6 -5 3 -12 2 -14 -2 -4
-6 -122 -9 -122 -3 0 2 -12 5 -51 13 -48 11 -122 55 -166 98 -27 25 -48 49
-48 53 0 6 -23 36 -48 62 -7 8 -11 14 -7 14 3 0 -4 15 -17 32 -35 50 -48 71
-54 90 -4 10 -10 18 -15 18 -5 0 -8 3 -7 8 1 9 -13 45 -21 52 -10 8 -35 64
-33 73 1 4 -2 7 -7 7 -8 0 -24 37 -22 52 1 5 -3 8 -9 8 -5 0 -10 9 -10 20 0
11 -3 20 -7 20 -5 0 -19 27 -33 60 -14 33 -28 60 -33 60 -4 0 -6 3 -5 8 2 4
-28 70 -65 147 -38 77 -68 140 -67 140 1 0 -17 33 -39 74 -23 41 -41 77 -41
82 0 4 -22 46 -50 94 -27 48 -50 90 -50 95 0 5 -4 10 -8 12 -9 3 -52 63 -52
71 0 4 45 18 70 22 3 0 11 4 17 8 7 5 23 10 35 12 13 3 24 9 26 15 2 6 7 8 12
5 4 -3 24 6 44 20 20 14 39 25 43 25 11 0 101 100 108 119 3 12 10 21 15 21 5
0 7 7 4 15 -4 8 -1 15 6 15 7 0 10 7 7 15 -4 8 -2 17 4 21 6 3 8 12 5 20 -3 7
-1 16 3 18 14 9 -12 216 -28 216 -3 0 -12 14 -20 30 -22 50 -101 119 -185 161
-44 22 -86 37 -93 35 -7 -3 -13 0 -13 5 0 6 -9 9 -20 6 -10 -3 -20 -1 -22 4
-2 5 -26 11 -53 12 -28 2 -56 6 -62 10 -6 4 -14 3 -18 -3 -4 -6 -12 -7 -18 -3
-17 10 -47 11 -47 1 0 -5 -6 -6 -12 -2 -19 12 -48 12 -48 0 0 -6 -4 -5 -9 2
-11 17 -12 18 -37 4 -12 -6 -24 -8 -28 -5 -10 10 -46 11 -46 1 0 -5 -6 -6 -12
-1 -19 11 -37 12 -44 2 -3 -5 -11 -6 -17 -2 -17 10 -47 11 -47 1 0 -5 -6 -6
-12 -1 -19 11 -37 12 -44 2 -3 -5 -11 -6 -17 -2 -19 11 -107 10 -107 -1 0 -8
-3 -8 -8 -1 -8 12 -22 13 -39 2 -7 -5 -13 -4 -13 1 0 5 -6 9 -14 9 -7 0 -13
-5 -12 -11z m484 -95 c12 5 22 5 22 1 0 -5 12 -9 28 -9 143 -6 295 -119 316
-237 2 -14 8 -31 12 -37 5 -8 3 -9 -5 -4 -10 5 -11 3 -4 -11 19 -39 -3 -127
-50 -202 -18 -29 -36 -49 -40 -46 -4 4 -7 3 -7 -3 0 -13 -96 -76 -119 -79 -9
-1 -37 -5 -64 -8 -26 -3 -52 -8 -57 -11 -6 -3 -10 0 -10 7 0 8 -3 9 -8 3 -8
-11 -15 -12 -109 -19 -44 -3 -63 -1 -64 7 -1 7 -2 150 -3 319 -1 338 -3 326
62 324 17 -1 32 2 32 6 0 4 10 4 23 -1 12 -5 32 -5 45 0z"/>
</g>
</svg>
